<svg width="100" height="100" viewBox="0 0 100 100" fill="none" xmlns="http://www.w3.org/2000/svg">
<path d="M94.2949 29.4165C94.2942 27.7394 93.9355 26.2575 93.2102 24.9856C92.4977 23.7349 91.4307 22.6867 89.9994 21.8578C78.1852 15.0457 66.3595 8.25436 54.5491 1.43527C51.365 -0.402929 48.2779 -0.335915 45.1175 1.52867C40.415 4.30193 16.8716 17.7905 9.85601 21.854C6.96678 23.5266 5.56087 26.0863 5.56018 29.4134C5.55566 43.113 5.56018 56.8123 5.55566 70.5123C5.55636 72.1526 5.89976 73.6057 6.59316 74.8585C7.30601 76.1471 8.38796 77.2242 9.85219 78.0717C16.8682 82.1353 40.4147 95.6228 45.1161 98.3967C48.2779 100.262 51.365 100.329 54.5501 98.4901C66.3609 91.6707 78.1873 84.8797 90.0032 78.0676C91.4675 77.2203 92.5494 76.1426 93.2623 74.8551C93.9546 73.6023 94.2987 72.1492 94.2994 70.5085C94.2994 70.5085 94.2994 43.1165 94.2949 29.4165" fill="#5C8DBC"/>
<path d="M50.0634 49.8296L6.59326 74.8588C7.30611 76.1473 8.38805 77.2244 9.85229 78.072C16.8683 82.1355 40.4148 95.623 45.1162 98.397C48.278 100.263 51.3651 100.329 54.5502 98.4904C66.361 91.6709 78.1874 84.8799 90.0033 78.0678C91.4676 77.2206 92.5495 76.1428 93.2624 74.8553L50.0634 49.8296" fill="#1A4674"/>
<path d="M37.188 57.2435C39.7175 61.6594 44.4727 64.6379 49.9276 64.6379C55.4161 64.6379 60.1984 61.6216 62.7151 57.1584L50.0633 49.8296L37.188 57.2435" fill="#1A4674"/>
<path d="M94.2946 29.4167C94.2939 27.7397 93.9352 26.2577 93.2099 24.9858L50.063 49.8296L93.2619 74.8553C93.9543 73.6025 94.2984 72.1494 94.2991 70.5088C94.2991 70.5088 94.2991 43.1167 94.2946 29.4167" fill="#1B598E"/>
<path d="M91.9195 51.6182H88.5438V54.9946H85.1675V51.6182H81.7921V48.2429H85.1675V44.8672H88.5438V48.2429H91.9195V51.6182ZM79.6018 51.6182H76.2265V54.9946H72.8508V51.6182H69.4751V48.2429H72.8508V44.8672H76.2265V48.2429H79.6018V51.6182Z" fill="white"/>
<path d="M62.715 57.1583C60.1984 61.6215 55.4161 64.6378 49.9275 64.6378C44.4727 64.6378 39.7174 61.6593 37.1879 57.2434C35.9172 55.0275 35.2499 52.5172 35.2525 49.9628C35.2525 41.8583 41.823 35.2882 49.9275 35.2882C55.3473 35.2882 60.0775 38.2295 62.6195 42.6003L75.4463 35.2142C70.348 26.4135 60.8296 20.4927 49.9275 20.4927C33.6511 20.4927 20.457 33.6871 20.457 49.9628C20.457 55.3024 21.8775 60.3097 24.3602 64.6288C29.4456 73.476 38.9911 79.4333 49.9275 79.4333C60.8841 79.4333 70.4445 73.452 75.5227 64.5788L62.715 57.1583Z" fill="white"/>
</svg>
