<svg width="100" height="100" viewBox="0 0 100 100" fill="none" xmlns="http://www.w3.org/2000/svg">
<path d="M89.009 29.9962C88.4264 29.0538 87.5711 28.2666 86.5315 27.7158L53.4685 10.7526C52.3971 10.2581 51.2074 10 50 10C48.7926 10 47.6029 10.2581 46.5315 10.7526L13.4685 27.7158C12.4554 28.2937 11.6123 29.0779 11.009 30.0034C10.4058 30.9288 10.0599 31.9688 10 33.0368V66.9632C10.0327 68.0352 10.3738 69.082 10.991 70.0038C11.5736 70.9462 12.4289 71.7334 13.4685 72.2842L46.5315 89.2474C47.6029 89.7419 48.7926 90 50 90C51.2074 90 52.3971 89.7419 53.4685 89.2474L86.5315 72.2842C87.5711 71.7334 88.4264 70.9462 89.009 70.0038C89.6262 69.082 89.9673 68.0352 90 66.9632V33.0368C89.9673 31.9647 89.6262 30.918 89.009 29.9962ZM50 73.6845C45.333 73.6659 40.7532 72.5599 36.7182 70.4768C32.6833 68.3937 29.3345 65.4065 27.0066 61.8138C24.6787 58.2212 23.4532 54.1488 23.4526 50.0036C23.4519 45.8585 24.6761 41.7858 27.0028 38.1925C29.3296 34.5992 32.6774 31.6112 36.7116 29.5271C40.7459 27.443 45.3254 26.3357 49.9924 26.316C54.6594 26.2963 59.2505 27.3648 63.3069 29.4148C67.3634 31.4647 70.743 34.4243 73.1081 37.9977L68.018 40.8383L66.3964 41.6384L61.8919 44.0789C60.4537 41.7102 58.1609 39.8395 55.3818 38.7673C52.6027 37.695 49.4985 37.4835 46.5677 38.1665C43.6369 38.8496 41.0496 40.3877 39.2213 42.5337C37.393 44.6798 36.4299 47.3093 36.4865 50C36.4737 52.082 37.0964 54.1282 38.2883 55.9211C39.4928 57.6848 41.1888 59.143 43.2126 60.155C45.2365 61.167 47.5198 61.6987 49.8423 61.6987C52.1649 61.6987 54.4482 61.167 56.472 60.155C58.4959 59.143 60.1919 57.6848 61.3964 55.9211L73.1081 62.0023C70.7368 65.5694 67.3569 68.524 63.3035 70.5732C59.2501 72.6224 54.664 73.6949 50 73.6845ZM76.6667 51.3202H73.6937V54.0008H70.7658V51.3603H68.018V48.7198H70.991V45.9992H73.9189V48.6397H76.8919L76.6667 51.3202ZM87.7928 51.3202H84.8198V54.0008H81.8468V51.3603H78.9189V48.7198H81.8468V45.9992H84.8198V48.6397H87.7928V51.3202Z" fill="#005494"/>
</svg>
