<svg width="80" height="91" viewBox="0 0 80 91" fill="none" xmlns="http://www.w3.org/2000/svg">
<g clip-path="url(#clip0_14_84)">
<path d="M39.9513 90.6524L7.39447 81.6143L0.13916 0.239258H79.861L72.5982 81.6018L39.9513 90.6524Z" fill="#264DE4"/>
<path d="M66.3803 76.4207L72.5866 6.89258H40V83.7341L66.3803 76.4207V76.4207Z" fill="#2965F1"/>
<path d="M16.7716 37.0738L17.666 47.0542H40.0001V37.0738H16.7716ZM14.9741 16.8735L15.8813 26.8538H40.0001V16.8735H14.9741V16.8735ZM40.0001 62.9938L39.9563 63.0054L28.8413 60.0042L28.1307 52.0445H18.1119L19.5101 67.7151L39.9541 73.3901L40.0001 73.3776V62.9938Z" fill="#EBEBEB"/>
<path d="M63.1647 37.0738L64.9663 16.8735H39.9656V26.8538H54.0288L53.1206 37.0738H39.9656V47.0542H52.2553L51.0966 59.9979L39.9653 63.0023V73.3854L60.4256 67.7151L60.5756 66.0288L62.9213 39.7538L63.1647 37.0738V37.0738Z" fill="white"/>
</g>
<defs>
<clipPath id="clip0_14_84">
<rect width="80" height="90.9375" fill="white"/>
</clipPath>
</defs>
</svg>
