<svg width="100" height="100" viewBox="0 0 100 100" fill="none" xmlns="http://www.w3.org/2000/svg">
<g clip-path="url(#clip0_22_4)">
<path d="M98.1127 45.5439L54.4502 1.8876C53.8524 1.28949 53.1426 0.81502 52.3613 0.491307C51.5801 0.167593 50.7427 0.000976563 49.8971 0.000976562C49.0514 0.000976563 48.2141 0.167593 47.4328 0.491307C46.6516 0.81502 45.9418 1.28949 45.3439 1.8876L36.2814 10.9501L47.7814 22.4501C49.1377 21.987 50.5969 21.9146 51.9923 22.241C53.3878 22.5675 54.6634 23.2797 55.6735 24.2963C56.6837 25.3129 57.3876 26.5931 57.7051 27.9906C58.0226 29.3882 57.9407 30.8468 57.4689 32.2001L68.5502 43.2876C70.1897 42.7104 71.9768 42.7086 73.6174 43.2826C75.258 43.8567 76.6542 44.9723 77.5761 46.4457C78.498 47.9192 78.8907 49.6627 78.6894 51.3891C78.4882 53.1155 77.705 54.7219 76.4689 55.9439C75.2176 57.2029 73.568 57.9884 71.8018 58.1662C70.0356 58.344 68.2625 57.9031 66.7853 56.9188C65.3081 55.9345 64.2184 54.4679 63.7025 52.7694C63.1866 51.0709 63.2763 49.246 63.9565 47.6064L53.6252 37.2689V64.4751C55.1956 65.2524 56.4521 66.5445 57.1853 68.1359C57.9185 69.7273 58.0842 71.522 57.6546 73.2208C57.2251 74.9195 56.2263 76.4197 54.8247 77.4714C53.4232 78.523 51.7035 79.0625 49.9524 78.9999C48.2013 78.9374 46.5246 78.2766 45.2016 77.1277C43.8786 75.9787 42.9894 74.4111 42.6822 72.686C42.3749 70.961 42.6681 69.1827 43.513 67.6476C44.3579 66.1125 45.7034 64.9134 47.3252 64.2501V36.7939C46.3895 36.4104 45.539 35.8456 44.8226 35.1319C44.1062 34.4183 43.5382 33.5699 43.1512 32.6356C42.7643 31.7014 42.5661 30.6998 42.5681 29.6886C42.57 28.6774 42.7721 27.6766 43.1627 26.7439L31.8314 15.4064L1.89395 45.3439C1.29584 45.9417 0.821368 46.6515 0.497654 47.4327C0.173941 48.214 0.00732422 49.0513 0.00732422 49.897C0.00732422 50.7426 0.173941 51.58 0.497654 52.3612C0.821368 53.1425 1.29584 53.8523 1.89395 54.4501L45.5564 98.1126C46.1543 98.7107 46.8641 99.1852 47.6453 99.5089C48.4266 99.8326 49.2639 99.9992 50.1096 99.9992C50.9552 99.9992 51.7926 99.8326 52.5738 99.5089C53.3551 99.1852 54.0649 98.7107 54.6627 98.1126L98.119 54.6563C99.3254 53.4482 100.003 51.8106 100.003 50.1032C100.003 48.3959 99.3254 46.7583 98.119 45.5501" fill="#F34F29"/>
</g>
<defs>
<clipPath id="clip0_22_4">
<rect width="100" height="100" fill="white"/>
</clipPath>
</defs>
</svg>
