<svg width="100" height="100" viewBox="0 0 100 100" fill="none" xmlns="http://www.w3.org/2000/svg">
<path d="M18.4437 85.0031L11.4219 6.25H88.5781L81.5469 84.9906L49.9531 93.75L18.4437 85.0031Z" fill="#E44F26"/>
<path d="M50 87.0561L75.5313 79.9779L81.5375 12.6904H50V87.0561Z" fill="#F1662A"/>
<path d="M50 41.8967H37.2187L36.3375 32.0061H50V22.3467H25.7812L26.0125 24.9404L28.3844 51.5561H50V41.8967V41.8967ZM50 66.9811L49.9563 66.9936L39.2 64.0904L38.5125 56.3873H28.8156L30.1688 71.5498L49.9563 77.0435L50 77.0311V66.9811Z" fill="#EBEBEB"/>
<path d="M49.9658 41.8967V51.5561H61.8596L60.7408 64.0842L49.9658 66.9904V77.0404L69.7689 71.5498L69.9127 69.9186L72.1814 44.4904L72.4189 41.8967H49.9658V41.8967ZM49.9658 22.3467V32.0061H73.2971L73.4908 29.8373L73.9314 24.9404L74.1627 22.3467H49.9658V22.3467Z" fill="white"/>
</svg>
