<svg width="100" height="136" viewBox="0 0 100 136" fill="none" xmlns="http://www.w3.org/2000/svg">
<g clip-path="url(#clip0_12_47)">
<path d="M32.2478 104.482C32.2478 104.482 27.0924 107.48 35.917 108.494C46.608 109.714 52.0717 109.539 63.8533 107.309C63.8533 107.309 66.951 109.251 71.2764 110.933C44.8658 122.253 11.5033 110.278 32.2478 104.482M29.0205 89.7104C29.0205 89.7104 23.2381 93.9909 32.0693 94.9042C43.4896 96.0823 52.5084 96.1788 68.1146 93.1737C68.1146 93.1737 70.2732 95.362 73.6674 96.5589C41.7349 105.896 6.16815 97.2952 29.0205 89.7104" fill="#5382A1"/>
<path d="M56.2272 64.6542C62.7351 72.1464 54.5175 78.8886 54.5175 78.8886C54.5175 78.8886 71.0413 70.3585 63.4526 59.6765C56.3651 49.7155 50.9296 44.7655 80.3542 27.7007C80.3542 27.7007 34.1675 39.2358 56.2272 64.6538" fill="#E76F00"/>
<path d="M91.1576 115.407C91.1576 115.407 94.9728 118.551 86.9556 120.983C71.7111 125.601 23.5056 126.995 10.1142 121.167C5.30057 119.073 14.3279 116.167 17.1674 115.556C20.1287 114.914 21.8213 115.034 21.8213 115.034C16.4678 111.263 -12.7815 122.439 6.96424 125.64C60.8131 134.372 105.125 121.708 91.1576 115.407ZM34.7264 74.4064C34.7264 74.4064 10.2064 80.2306 26.0435 82.3451C32.7303 83.2404 46.0603 83.0381 58.4771 81.9974C68.6248 81.142 78.8142 79.3217 78.8142 79.3217C78.8142 79.3217 75.2361 80.8541 72.6474 82.6217C47.7474 89.1705 -0.354901 86.124 13.4931 79.4252C25.2045 73.7642 34.7267 74.4064 34.7267 74.4064M78.7131 98.9931C104.026 85.84 92.3221 73.2002 84.1533 74.9033C82.151 75.3197 81.2584 75.6807 81.2584 75.6807C81.2584 75.6807 82.0017 74.5166 83.4213 74.0127C99.5814 68.331 112.01 90.7693 78.2045 99.656C78.2045 99.6564 78.5963 99.3064 78.7131 98.9931Z" fill="#5382A1"/>
<path d="M63.4528 0.144922C63.4528 0.144922 77.4712 14.1684 50.1571 35.7312C28.2544 53.0289 45.1626 62.8914 50.1481 74.1598C37.363 62.6246 27.9801 52.4699 34.2751 43.0191C43.5137 29.1453 69.1087 22.4191 63.4528 0.144531" fill="#E76F00"/>
<path d="M37.214 134.635C61.5104 136.19 98.8202 133.772 99.7038 122.275C99.7038 122.275 98.0054 126.634 79.6241 130.095C58.8866 133.997 33.3101 133.542 18.1401 131.041C18.1405 131.041 21.2456 133.611 37.2144 134.635" fill="#5382A1"/>
</g>
<defs>
<clipPath id="clip0_12_47">
<rect width="100" height="135.156" fill="white"/>
</clipPath>
</defs>
</svg>
