<svg width="88" height="88" viewBox="0 0 88 88" fill="none" xmlns="http://www.w3.org/2000/svg">
<path d="M0.25 0.25V87.75H87.75V0.25H0.25ZM47.8688 68.4906C47.8688 77.0062 42.8688 80.8938 35.5844 80.8938C29.0031 80.8938 25.1938 77.4969 23.2406 73.375L29.9406 69.3313C31.2313 71.6156 32.4031 73.55 35.2344 73.55C37.9281 73.55 39.6469 72.4938 39.6469 68.375V40.425H47.8688V68.4906ZM67.3187 80.8938C59.6812 80.8938 54.7406 77.2625 52.3375 72.4938L59.0375 68.6281C60.7969 71.5 63.1 73.6281 67.1438 73.6281C70.5406 73.6281 72.7312 71.9281 72.7312 69.5656C72.7312 66.7531 70.5031 65.7562 66.7344 64.0969L64.6844 63.2188C58.7469 60.7 54.8219 57.5156 54.8219 50.8156C54.8219 44.6437 59.5281 39.9562 66.8531 39.9562C72.0875 39.9562 75.8375 41.7719 78.5344 46.5375L72.1281 50.6406C70.7219 48.1219 69.1969 47.125 66.8344 47.125C64.4344 47.125 62.9094 48.65 62.9094 50.6406C62.9094 53.1031 64.4344 54.0969 67.9688 55.6406L70.0188 56.5188C77.0125 59.5063 80.9375 62.575 80.9375 69.4469C80.9375 76.8313 75.1156 80.8906 67.3219 80.8906L67.3187 80.8938Z" fill="#EAD41C"/>
</svg>
