<svg width="100" height="89" viewBox="0 0 100 89" fill="none" xmlns="http://www.w3.org/2000/svg">
<path d="M82.2199 28.8374C81.1557 28.4723 80.0824 28.134 79.0012 27.823C79.1828 27.0808 79.35 26.3476 79.4984 25.6273C81.9352 13.7988 80.3422 4.26946 74.9012 1.13196C69.6844 -1.87585 61.1527 1.26048 52.5363 8.75931C51.6871 9.49967 50.8568 10.2614 50.0461 11.0437C49.5034 10.5235 48.9511 10.0134 48.3895 9.5136C39.359 1.49564 30.3074 -1.88366 24.8723 1.26282C19.6602 4.28001 18.1168 13.2382 20.3105 24.4484C20.5288 25.5586 20.7752 26.6631 21.0496 27.7609C19.7684 28.1249 18.532 28.5124 17.3488 28.9249C6.76133 32.6163 0 38.4011 0 44.4015C0 50.5988 7.25859 56.8148 18.2859 60.5839C19.1799 60.8882 20.0814 61.1702 20.9895 61.4296C20.6945 62.6119 20.4327 63.8022 20.2043 64.9992C18.1129 76.0148 19.7461 84.7613 24.9441 87.7593C30.3129 90.8554 39.3238 87.6734 48.0977 80.0035C48.8091 79.3799 49.5049 78.7387 50.1844 78.0804C51.0623 78.9275 51.9637 79.7499 52.8875 80.5468C61.3867 87.8601 69.7805 90.8132 74.9734 87.807C80.3371 84.7019 82.0805 75.3058 79.8172 63.8742C79.6389 62.9786 79.439 62.0874 79.2176 61.2015C79.8504 61.014 80.4715 60.821 81.077 60.6202C92.541 56.8222 100 50.6816 100 44.4015C100 38.3792 93.0203 32.5554 82.2199 28.8374V28.8374ZM79.7336 56.5656C79.1867 56.7464 78.6258 56.921 78.0539 57.091C76.7883 53.0843 75.0805 48.8242 72.9902 44.4222C74.9848 40.1253 76.627 35.9195 77.857 31.939C78.8801 32.2351 79.8727 32.5472 80.8297 32.8765C90.0836 36.0624 95.7281 40.7722 95.7281 44.4015C95.7281 48.2671 89.632 53.2855 79.7336 56.5656V56.5656ZM75.6266 64.7038C76.6273 69.7585 76.7699 74.3288 76.107 77.9019C75.5117 81.1124 74.3141 83.2527 72.8328 84.1101C69.6816 85.9343 62.9422 83.5632 55.6738 77.3085C54.8146 76.5677 53.9761 75.803 53.1594 75.0156C55.9773 71.9339 58.7934 68.3515 61.5418 64.3726C66.3762 63.9437 70.9434 63.2421 75.0852 62.2847C75.2847 63.0867 75.4652 63.8933 75.6266 64.7038V64.7038ZM34.0922 83.7949C31.0133 84.882 28.5609 84.9132 27.0785 84.0585C23.9242 82.2394 22.6129 75.2163 24.4016 65.796C24.6142 64.6829 24.8576 63.5758 25.1316 62.4761C29.2277 63.3824 33.7617 64.0339 38.6074 64.4269C41.3746 68.3202 44.2719 71.8988 47.1918 75.0324C46.5713 75.6328 45.936 76.2179 45.2867 76.787C41.4066 80.1784 37.5188 82.5847 34.0922 83.7949V83.7949ZM19.668 56.5417C14.7918 54.8749 10.7648 52.7089 8.00469 50.3452C5.52422 48.2214 4.27227 46.1124 4.27227 44.4015C4.27227 40.7601 9.70078 36.1156 18.7551 32.9589C19.8539 32.5761 21.0039 32.2148 22.1973 31.8757C23.4488 35.946 25.0902 40.2019 27.0711 44.5054C25.0645 48.8726 23.3996 53.1964 22.1359 57.3148C21.3071 57.0774 20.4842 56.8196 19.668 56.5417V56.5417ZM24.5031 23.6277C22.6238 14.0234 23.8719 6.77845 27.0129 4.96009C30.3582 3.02337 37.7559 5.7847 45.5531 12.7081C46.0616 13.1606 46.5618 13.6223 47.0535 14.0929C44.148 17.2128 41.2773 20.7648 38.5348 24.6351C33.8316 25.071 29.3297 25.771 25.1906 26.7089C24.9356 25.6879 24.7064 24.6606 24.5031 23.6281V23.6277ZM67.6387 34.2792C66.661 32.5905 65.6471 30.9231 64.5977 29.2781C67.7883 29.6816 70.8453 30.2171 73.716 30.8718C72.8543 33.6343 71.7801 36.5222 70.5156 39.4831C69.5914 37.7295 68.6322 35.9945 67.6387 34.2792V34.2792ZM50.048 17.146C52.0184 19.2808 53.9918 21.664 55.9328 24.2499C51.9953 24.064 48.0512 24.0632 44.1137 24.2476C46.0566 21.6855 48.0469 19.3054 50.048 17.146ZM32.3445 34.3085C31.3634 36.01 30.4221 37.7342 29.5215 39.4796C28.2777 36.5292 27.2133 33.6281 26.3441 30.8265C29.1973 30.1882 32.2398 29.6663 35.4102 29.2702C34.349 30.9253 33.3268 32.6051 32.3445 34.3081V34.3085ZM35.5012 59.8367C32.2258 59.471 29.1375 58.9761 26.2852 58.355C27.168 55.5035 28.2559 52.5406 29.5266 49.5269C30.4308 51.2736 31.376 52.9988 32.3613 54.7011C33.3746 56.4511 34.4238 58.1652 35.5012 59.8367ZM50.166 71.9577C48.141 69.7734 46.1215 67.3566 44.1492 64.7574C46.0641 64.8324 48.016 64.8706 50 64.8706C52.0383 64.8706 54.0531 64.8249 56.0363 64.7367C54.0891 67.3827 52.123 69.8031 50.166 71.9577ZM70.5559 49.373C71.8926 52.4199 73.0191 55.3671 73.9137 58.1699C71.0145 58.8316 67.884 59.3644 64.5855 59.7601C65.6425 58.0845 66.666 56.3881 67.6555 54.6718C68.6615 52.9273 69.6285 51.1606 70.5559 49.373V49.373ZM63.9551 52.5374C62.4403 55.1688 60.8404 57.7503 59.1578 60.2777C56.11 60.4935 53.0555 60.6008 50 60.5992C46.8879 60.5992 43.8609 60.5023 40.9461 60.3132C39.2196 57.7917 37.5892 55.2057 36.0582 52.5609H36.0586C34.5348 49.93 33.1116 47.2423 31.7918 44.5034C33.1082 41.764 34.5272 39.0749 36.0457 36.4421L36.0453 36.4425C37.5633 33.809 39.1807 31.2341 40.8941 28.7234C43.868 28.4984 46.9176 28.3812 49.9996 28.3812H50C53.0961 28.3812 56.1496 28.4995 59.1227 28.7261C60.8188 31.2331 62.4259 33.7991 63.941 36.4195C65.4646 39.0465 66.9024 41.7224 68.252 44.4429C66.9162 47.1912 65.483 49.8911 63.9551 52.5374V52.5374ZM72.7676 4.83274C76.116 6.76399 77.4184 14.5519 75.3145 24.7648C75.1801 25.4163 75.0293 26.08 74.8652 26.7531C70.716 25.7952 66.2109 25.0831 61.4941 24.6406C58.7465 20.7277 55.8992 17.1702 53.041 14.0906C53.7901 13.3685 54.557 12.6651 55.341 11.9812C62.7238 5.55657 69.6238 3.01985 72.7676 4.83274V4.83274ZM50 35.4718C54.9316 35.4718 58.9297 39.4699 58.9297 44.4015C58.9297 49.3331 54.9316 53.3312 50 53.3312C45.0684 53.3312 41.0703 49.3331 41.0703 44.4015C41.0703 39.4699 45.0684 35.4718 50 35.4718V35.4718Z" fill="#00D8FF"/>
</svg>
