<svg width="100" height="100" viewBox="0 0 100 100" fill="none" xmlns="http://www.w3.org/2000/svg">
<path d="M90.6562 15.7186L72.6374 7.04364C71.6198 6.55301 70.4748 6.3911 69.3611 6.58036C68.2474 6.76962 67.2202 7.30067 66.4218 8.09989L7.43741 61.8749C6.72175 62.5243 6.29337 63.4313 6.24648 64.3966C6.1996 65.3618 6.53806 66.3061 7.18741 67.0218C7.26553 67.1061 7.34366 67.1874 7.42803 67.2624L12.2437 71.6374C12.8729 72.2101 13.6829 72.5443 14.5329 72.582C15.3829 72.6197 16.2193 72.3584 16.8968 71.8436L87.9437 17.9686C88.4803 17.5614 89.1199 17.3121 89.7906 17.2487C90.4613 17.1853 91.1363 17.3104 91.7397 17.6098C92.3432 17.9093 92.851 18.3712 93.2062 18.9436C93.5613 19.516 93.7496 20.1762 93.7499 20.8499V20.6405C93.7498 19.6121 93.4595 18.6046 92.9122 17.7338C92.3649 16.8631 91.5829 16.1646 90.6562 15.7186V15.7186Z" fill="#0065A9"/>
<path d="M90.6562 84.2815L72.6374 92.9596C71.6195 93.4488 70.4749 93.61 69.3615 93.4208C68.2481 93.2316 67.2209 92.7014 66.4218 91.9033L7.43741 38.1252C6.72175 37.4758 6.29337 36.5688 6.24648 35.6035C6.1996 34.6383 6.53806 33.694 7.18741 32.9783C7.26553 32.894 7.34366 32.8127 7.42803 32.7377L12.2437 28.3627C12.8736 27.7876 13.6854 27.4519 14.5375 27.4142C15.3896 27.3765 16.2279 27.6392 16.9062 28.1565L87.9437 82.0315C88.4803 82.4387 89.1199 82.688 89.7906 82.7514C90.4613 82.8148 91.1363 82.6897 91.7397 82.3903C92.3432 82.0909 92.851 81.6289 93.2062 81.0565C93.5613 80.4841 93.7496 79.8239 93.7499 79.1502V79.3752C93.7465 80.4009 93.4546 81.405 92.9075 82.2726C92.3604 83.1402 91.5802 83.8363 90.6562 84.2815V84.2815Z" fill="#007ACC"/>
<path d="M72.6373 92.9596C71.6194 93.4488 70.4748 93.61 69.3614 93.4208C68.248 93.2316 67.2208 92.7013 66.4217 91.9033C66.8704 92.3462 67.4399 92.6469 68.0588 92.7675C68.6777 92.8881 69.3184 92.8235 69.9007 92.5815C70.4829 92.3396 70.9809 91.9312 71.332 91.4076C71.6832 90.8839 71.872 90.2682 71.8748 89.6377V10.3627C71.8753 9.72924 71.6878 9.10986 71.336 8.58304C70.9843 8.05622 70.484 7.64566 69.8987 7.40337C69.3134 7.16109 68.6694 7.09797 68.0482 7.22202C67.427 7.34607 66.8565 7.65171 66.4092 8.10021C67.2077 7.30128 68.2347 6.77019 69.3482 6.58041C70.4618 6.39062 71.6067 6.55152 72.6248 7.04084L90.6404 15.7033C91.5701 16.1471 92.3553 16.8446 92.9054 17.7155C93.4556 18.5864 93.7483 19.5951 93.7498 20.6252V79.3752C93.7501 80.4045 93.4595 81.4129 92.9116 82.2843C92.3637 83.1556 91.5807 83.8545 90.6529 84.3002L72.6373 92.9596Z" fill="#1F9CF0"/>
</svg>
