<svg width="20" height="17" viewBox="0 0 20 17" fill="none" xmlns="http://www.w3.org/2000/svg">
<path d="M0 2.03125C0 1.49253 0.210714 0.975873 0.585786 0.594939C0.960859 0.214006 1.46957 0 2 0H18C18.5304 0 19.0391 0.214006 19.4142 0.594939C19.7893 0.975873 20 1.49253 20 2.03125V14.2188C20 14.7575 19.7893 15.2741 19.4142 15.6551C19.0391 16.036 18.5304 16.25 18 16.25H2C1.46957 16.25 0.960859 16.036 0.585786 15.6551C0.210714 15.2741 0 14.7575 0 14.2188V2.03125ZM3.519 2.03125L10 7.79086L16.481 2.03125H3.52H3.519ZM18 3.38102L10.659 9.90539C10.4766 10.0677 10.2424 10.1571 10 10.1571C9.75755 10.1571 9.52336 10.0677 9.341 9.90539L2 3.38102V14.2188H18V3.38102Z" fill="#D5D2D2"/>
</svg>
