<svg width="100" height="100" viewBox="0 0 100 100" fill="none" xmlns="http://www.w3.org/2000/svg">
<g clip-path="url(#clip0_31_2)">
<path d="M85.2043 85.2061H70.3875V62.0018C70.3875 56.4686 70.2887 49.3456 62.6813 49.3456C54.9641 49.3456 53.7832 55.3745 53.7832 61.5991V85.2045H38.9668V37.4874H53.1907V44.0085H53.3899C54.8133 41.5745 56.8703 39.5722 59.3418 38.2148C61.8132 36.8574 64.6065 36.1957 67.4242 36.3002C82.4418 36.3002 85.2106 46.1784 85.2106 59.0292L85.2043 85.2061V85.2061ZM22.2481 30.9651C17.4992 30.9659 13.6489 27.1167 13.6481 22.3678C13.6473 17.619 17.4961 13.7686 22.2449 13.7678C26.9938 13.7667 30.8442 17.6159 30.8449 22.3647C30.8454 24.6452 29.9399 26.8324 28.3277 28.4453C26.7154 30.0582 24.5286 30.9646 22.2481 30.9651M29.6567 85.2065H14.8242V37.4874H29.6563V85.2061L29.6567 85.2065ZM92.591 0.00727808H7.37893C3.35159 -0.0380344 0.0488525 3.18814 -0.000366211 7.21548V92.7831C0.04729 96.8124 3.34963 100.042 7.37854 99.9995H92.591C96.6285 100.049 99.9438 96.8202 99.9996 92.7831V7.20884C99.9422 3.17368 96.6266 -0.0520969 92.591 0.000637458" fill="#0A66C2"/>
</g>
<defs>
<clipPath id="clip0_31_2">
<rect width="100" height="100" fill="white"/>
</clipPath>
</defs>
</svg>
