<svg width="40" height="30" viewBox="0 0 40 30" fill="none" xmlns="http://www.w3.org/2000/svg">
<path d="M39.7583 14.1445C35.9923 7.94473 28.5368 3.75 20 3.75C11.4632 3.75 4.00552 7.94766 0.241629 14.1451C0.0827689 14.4103 0 14.7032 0 15.0003C0 15.2974 0.0827689 15.5903 0.241629 15.8555C4.0076 22.0553 11.4632 26.25 20 26.25C28.5368 26.25 35.9944 22.0523 39.7583 15.8549C39.9172 15.5897 39.9999 15.2968 39.9999 14.9997C39.9999 14.7026 39.9172 14.4097 39.7583 14.1445V14.1445ZM20 23.4375C18.0221 23.4375 16.0888 22.9426 14.4443 22.0155C12.7998 21.0884 11.518 19.7706 10.7612 18.2289C10.0043 16.6871 9.80626 14.9906 10.1921 13.3539C10.578 11.7172 11.5304 10.2138 12.9289 9.03379C14.3274 7.85378 16.1092 7.05019 18.0491 6.72462C19.9889 6.39906 21.9995 6.56615 23.8268 7.20477C25.6541 7.84338 27.2158 8.92484 28.3147 10.3124C29.4135 11.6999 30 13.3312 30 15C30.0006 16.1082 29.7424 17.2056 29.2401 18.2295C28.7377 19.2535 28.0012 20.1838 27.0725 20.9674C26.1437 21.751 25.0411 22.3725 23.8276 22.7963C22.614 23.2202 21.3134 23.438 20 23.4375V23.4375ZM20 9.375C19.4049 9.38202 18.8137 9.45671 18.2423 9.59707C18.7133 10.1371 18.9393 10.8017 18.8794 11.4703C18.8194 12.1389 18.4775 12.7672 17.9156 13.2413C17.3537 13.7154 16.609 14.0039 15.8166 14.0545C15.0242 14.1051 14.2365 13.9144 13.5965 13.517C13.232 14.65 13.2978 15.8508 13.7846 16.9506C14.2714 18.0503 15.1547 18.9936 16.3101 19.6476C17.4655 20.3016 18.835 20.6335 20.2256 20.5964C21.6163 20.5593 22.9582 20.1552 24.0624 19.441C25.1666 18.7268 25.9775 17.7383 26.3811 16.6148C26.7846 15.4913 26.7605 14.2894 26.312 13.1781C25.8635 12.0668 25.0133 11.1021 23.881 10.4199C22.7487 9.73769 21.3913 9.37224 20 9.375V9.375Z" fill="#02A4C4"/>
</svg>
